<svg width="14" height="14" viewBox="0 0 14 14" fill="none" xmlns="http://www.w3.org/2000/svg">
<path d="M11.3994 12.9969C11.8948 13.1848 12.3219 13.1848 12.6806 12.9969C13.0223 12.7919 13.2615 12.5015 13.3981 12.1256C13.5348 11.7327 13.5348 11.3483 13.3981 10.9725C13.2615 10.5796 12.954 10.2892 12.4756 10.1012L4.5575 7.05187L12.4756 4.02812C12.954 3.84021 13.2615 3.54979 13.3981 3.15687C13.5348 2.76396 13.5348 2.37958 13.3981 2.00375C13.2615 1.61083 13.0223 1.31187 12.6806 1.10687C12.3219 0.901874 11.8948 0.901874 11.3994 1.10687L1.94375 4.8225C0.884582 5.2325 0.354999 5.96708 0.354999 7.02625C0.354999 8.11958 0.884582 8.87125 1.94375 9.28125L11.3994 12.9969Z" fill="#363636"/>
</svg>
