<svg width="14" height="14" viewBox="0 0 14 14" fill="none" xmlns="http://www.w3.org/2000/svg">
<path d="M2.60063 12.9969C2.10521 13.1848 1.67813 13.1848 1.31938 12.9969C0.977708 12.7919 0.738542 12.5015 0.601875 12.1256C0.465208 11.7327 0.465208 11.3483 0.601875 10.9725C0.738542 10.5796 1.04604 10.2892 1.52438 10.1012L9.4425 7.05187L1.52438 4.02812C1.04604 3.84021 0.738542 3.54979 0.601875 3.15687C0.465208 2.76396 0.465208 2.37958 0.601875 2.00375C0.738542 1.61083 0.977708 1.31187 1.31938 1.10687C1.67813 0.901874 2.10521 0.901874 2.60063 1.10687L12.0563 4.8225C13.1154 5.2325 13.645 5.96708 13.645 7.02625C13.645 8.11958 13.1154 8.87125 12.0563 9.28125L2.60063 12.9969Z" fill="#363636"/>
</svg>
